# xmcd
#
# Track frame offsets:
#	150
#	40087
#	97337
#	123580
#	180010
#	241522
#	277577
#	317367
#
# Disc length: 4673 seconds
#
# Revision: 1
# Processed by: cddbd v1.5.1PL0 Copyright (c) Steve Scherf et al.
# Submitted via: CDex 1.50Beta5
#
DISCID=55123f08
DTITLE=ベルグルンド/ヘルシンキ・フィル - シベリウス交響曲全集 Disc 3
DYEAR=1900
DGENRE=Classical
TTITLE0=第2番ニ長調作品43 第1楽章
TTITLE1=第2番ニ長調作品43 第2楽章
TTITLE2=第2番ニ長調作品43 第3楽章
TTITLE3=第2番ニ長調作品43 第4楽章
TTITLE4=第5番変ホ長調作品82 第1楽章
TTITLE5=第5番変ホ長調作品82 第2楽章
TTITLE6=第5番変ホ長調作品82 第3楽章
TTITLE7=交響詩「フィンランディア」作品26
EXTD=
EXTT0=
EXTT1=
EXTT2=
EXTT3=
EXTT4=
EXTT5=
EXTT6=
EXTT7=
PLAYORDER=
